<?xml version="1.0" encoding="iso-8859-1"?>
<!-- Generator: Adobe Illustrator 19.0.0, SVG Export Plug-In . SVG Version: 6.00 Build 0)  -->
<svg version="1.1" id="Capa_1" xmlns="http://www.w3.org/2000/svg" xmlns:xlink="http://www.w3.org/1999/xlink" x="0px" y="0px"
	 viewBox="0 0 512.008 512.008" style="enable-background:new 0 0 512.008 512.008;" xml:space="preserve">
<g>
	
		<rect x="30.512" y="405.317" transform="matrix(-0.5708 0.8211 -0.8211 -0.5708 544.2534 534.1309)" style="fill:#629FD6;" width="204.026" height="7.992"/>
	
		<rect x="-32.112" y="405.268" transform="matrix(-0.5708 0.8211 -0.8211 -0.5708 445.838 585.4787)" style="fill:#629FD6;" width="204.018" height="7.992"/>
	
		<rect x="93.206" y="405.281" transform="matrix(-0.5708 0.8211 -0.8211 -0.5708 642.697 482.6009)" style="fill:#629FD6;" width="204.018" height="7.992"/>
	
		<rect x="155.876" y="405.277" transform="matrix(-0.5708 0.8211 -0.8211 -0.5708 741.1416 431.1343)" style="fill:#629FD6;" width="204.026" height="7.992"/>
	
		<rect x="218.505" y="405.306" transform="matrix(-0.5708 0.8211 -0.8211 -0.5708 839.5372 379.7574)" style="fill:#629FD6;" width="204.018" height="7.992"/>
	
		<rect x="281.133" y="405.297" transform="matrix(-0.5708 0.8211 -0.8211 -0.5708 937.9108 328.3167)" style="fill:#629FD6;" width="204.026" height="7.992"/>
</g>
<path style="fill:#DFE6F4;" d="M417.44,149.572h-7.584c-7.544-31.728-36.136-55.504-70.336-55.504
	c-8.312,0-16.728,1.832-23.696,4.152c-16.728-47.472-62.032-81.568-115.448-81.568c-67.632,0-122.456,54.544-122.456,121.84
	c0,4.24,0.232,8.416,0.64,12.552C34.112,158.692,0,197.388,0,243.708c0,51.776,42.576,94.16,94.608,94.16H417.4
	c52.032,0,94.608-42.36,94.608-94.16C512.04,191.948,469.472,149.572,417.44,149.572z"/>
<g>
</g>
<g>
</g>
<g>
</g>
<g>
</g>
<g>
</g>
<g>
</g>
<g>
</g>
<g>
</g>
<g>
</g>
<g>
</g>
<g>
</g>
<g>
</g>
<g>
</g>
<g>
</g>
<g>
</g>
</svg>
