<?xml version="1.0" encoding="iso-8859-1"?>
<!-- Generator: Adobe Illustrator 19.0.0, SVG Export Plug-In . SVG Version: 6.00 Build 0)  -->
<svg version="1.1" id="Capa_1" xmlns="http://www.w3.org/2000/svg" xmlns:xlink="http://www.w3.org/1999/xlink" x="0px" y="0px"
	 viewBox="0 0 512 512" style="enable-background:new 0 0 512 512;" xml:space="preserve">
<path style="fill:#99A8C1;" d="M253.088,108.616h-4.376c-4.352-18.312-20.856-32.032-40.592-32.032c-4.8,0-9.656,1.056-13.672,2.4
	c-9.656-27.4-35.8-47.072-66.632-47.072c-39.032,0-70.672,31.48-70.672,70.32c0,2.448,0.136,4.856,0.368,7.24
	c-25.656,4.416-45.344,26.744-45.344,53.48c0,29.88,24.568,54.344,54.6,54.344h186.296c30.032,0,54.6-24.448,54.6-54.344
	C307.688,133.072,283.12,108.616,253.088,108.616z"/>
<path style="fill:#B5C0D6;" d="M197.192,173.72h5.72c5.688-23.928,27.256-41.856,53.04-41.856c6.264,0,12.616,1.384,17.872,3.136
	c12.616-35.8,46.776-61.512,87.064-61.512c51,0,92.344,41.136,92.344,91.88c0,3.2-0.176,6.344-0.48,9.464
	c33.52,5.76,59.248,34.944,59.248,69.88c0,39.048-32.104,71.008-71.344,71.008H197.224c-39.24,0-71.344-31.944-71.344-71.008
	C125.848,205.68,157.952,173.72,197.192,173.72z"/>
<path style="fill:#DFE6F4;" d="M314.808,224.832h-5.72c-5.688-23.928-27.256-41.856-53.04-41.856
	c-6.264,0-12.616,1.384-17.872,3.136c-12.616-35.8-46.776-61.512-87.064-61.512c-51,0-92.344,41.136-92.344,91.88
	c0,3.2,0.176,6.344,0.48,9.464C25.728,231.712,0,260.896,0,295.824c0,39.048,32.104,71.008,71.344,71.008h243.424
	c39.24,0,71.344-31.944,71.344-71.008C386.152,256.792,354.048,224.832,314.808,224.832z"/>
<polygon style="fill:#629FD6;" points="184.208,211.064 92.016,326.488 184.208,326.488 120.408,480.088 294.096,281.296 
	184.624,281.296 "/>
<g>
</g>
<g>
</g>
<g>
</g>
<g>
</g>
<g>
</g>
<g>
</g>
<g>
</g>
<g>
</g>
<g>
</g>
<g>
</g>
<g>
</g>
<g>
</g>
<g>
</g>
<g>
</g>
<g>
</g>
</svg>
